{"title":"Never Say Never Again (1983) DVD RIP James Bond","uid":9642503,"size":1949606599,"categoryP":"video","categoryS":"movies","magnet":"?xt=urn:btih:a49d4f8bb1bdeaae920073d8518560770acf2c2c&amp;dn=Never+Say+Never+Again+%281983%29+DVD+RIP+James+Bond&amp;tr=udp%3A%2F%2Ftracker.openbittorrent.com%3A80&amp;tr=udp%3A%2F%2Fopen.demonii.com%3A1337&amp;tr=udp%3A%2F%2Ftracker.coppersurfer.tk%3A6969&amp;tr=udp%3A%2F%2Fexodus.desync.com%3A6969","seeders":1,"leechers":0,"uploader":"jmanwf","files":9,"time":1392946375,"description":"Never Say Never Again (1983) DVD RIP \n\n\nINCLUDING DIRECTORIES COMMENTARY\n\n\n\n\nStoryline\n\nSPECTRE agents under the command of Ernst Blofeld infiltrate a US air force base situated in the UK and steal two Tomahawk cruise missiles. When NATO is held to ransom, the British reactive their &quot;00&quot; agents and send James Bond to recapture the warheads and kill Blofeld.\n\n\n\nFormat                                   : MPEG-4\nFormat profile                           : Base Media / Version 2\nCodec ID                                 : mp42\nFile size                                : 1.52 GiB\nDuration                                 : 2h 14mn\nOverall bit rate mode                    : Variable\nOverall bit rate                         : 1 617 Kbps\nEncoded date                             : UTC 2013-12-30 08:32:48\nTagged date                              : UTC 2013-12-30 10:11:17\nWriting application                      : HandBrake 0.9.9 2013052900\n\nVideo\nID                                       : 1\nFormat                                   : AVC\nFormat/Info                              : Advanced Video Codec\nFormat profile                           : &lt;a class=&quot;__cf_email__&quot; href=&quot;/cdn-cgi/l/email-protection&quot; data-cfemail=&quot;d098b9b7b8909ce4fee1&quot;&gt;[email&amp;#160;protected]&lt;/a&gt;&lt;script cf-hash='f9e31' type=&quot;text/javascript&quot;&gt;\n/* &lt;![CDATA[ */!function(){try{var t=&quot;currentScript&quot;in document?document.currentScript:function(){for(var t=document.getElementsByTagName(&quot;script&quot;),e=t.length;e--;)if(t[e].getAttribute(&quot;cf-hash&quot;))return t[e]}();if(t&amp;&amp;t.previousSibling){var e,r,n,i,c=t.previousSibling,a=c.getAttribute(&quot;data-cfemail&quot;);if(a){for(e=&quot;&quot;,r=parseInt(a.substr(0,2),16),n=2;a.length-n;n+=2)i=parseInt(a.substr(n,2),16)^r,e+=String.fromCharCode(i);e=document.createTextNode(e),c.parentNode.replaceChild(e,c)}}}catch(u){}}();/* ]]&gt; */&lt;/script&gt;\nFormat settings, CABAC                   : Yes\nFormat settings, ReFrames                : 4 frames\nCodec ID                                 : avc1\nCodec ID/Info                            : Advanced Video Coding\nDuration                                 : 2h 14mn\nBit rate                                 : 1 291 Kbps\nWidth                                    : 852 pixels\nHeight                                   : 480 pixels\nDisplay aspect ratio                     : 16:9\nFrame rate mode                          : Variable\nFrame rate                               : 23.976 fps\nMinimum frame rate                       : 23.974 fps\nMaximum frame rate                       : 23.981 fps\nColor space                              : YUV\nChroma subsampling                       : 4:2:0\nBit depth                                : 8 bits\nScan type                                : Progressive\nBits/(Pixel*Frame)                       : 0.132\nStream size                              : 1.21 GiB (80%)\nWriting library                          : x264 core 130 r2273 b3065e6\nEncoding settings                        : cabac=1 / ref=3 / deblock=1:0:0 / \nEncoded date                             : UTC 2013-12-30 08:32:48\nTagged date                              : UTC 2013-12-30 10:11:17\nColor primaries                          : BT.709\nTransfer characteristics                 : BT.709\nMatrix coefficients                      : BT.709\n\nAudio #1\nID                                       : 2\nFormat                                   : AAC\nFormat/Info                              : Advanced Audio Codec\nFormat profile                           : LC\nCodec ID                                 : 40\nDuration                                 : 2h 14mn\nBit rate mode                            : Variable\nBit rate                                 : 160 Kbps\nMaximum bit rate                         : 317 Kbps\nChannel(s)                               : 2 channels\nChannel positions                        : Front: L R\nSampling rate                            : 48.0 KHz\nCompression mode                         : Lossy\nStream size                              : 154 MiB (10%)\nLanguage                                 : English\nEncoded date                             : UTC 2013-12-30 08:32:48\nTagged date                              : UTC 2013-12-30 10:11:16\n\n &lt;a href=&quot;\nhttp://www.imdb.com/title/tt0086006/&quot; rel=&quot;nofollow&quot; target=&quot;_NEW&quot;&gt;\nhttp://www.imdb.com/title/tt0086006/&lt;/a&gt;","torrent":{"xt":"urn:btih:a49d4f8bb1bdeaae920073d8518560770acf2c2c","amp;dn":"Never+Say+Never+Again+%281983%29+DVD+RIP+James+Bond","amp;tr":["udp%3A%2F%2Ftracker.openbittorrent.com%3A80","udp%3A%2F%2Fopen.demonii.com%3A1337","udp%3A%2F%2Ftracker.coppersurfer.tk%3A6969","udp%3A%2F%2Fexodus.desync.com%3A6969"],"infoHash":"a49d4f8bb1bdeaae920073d8518560770acf2c2c","infoHashBuffer":{"type":"Buffer","data":[164,157,79,139,177,189,234,174,146,0,115,216,81,133,96,119,10,207,44,44]},"announce":[],"urlList":[]}}